<?xml version="1.0" encoding="UTF-8" standalone="no"?>
<svg viewBox="0 0 16 14" version="1.1" xmlns="http://www.w3.org/2000/svg">
    <title>Camera</title>
    <desc></desc>
    <defs>
        <style type="text/css"><![CDATA[
            #camera {
            }
        ]]></style>
    </defs>
    <g id="camera" stroke="none" stroke-width="1" fill="none" fill-rule="evenodd">
        <g transform="translate(-158.000000, -2648.000000)" fill="#b3bec3">
            <path d="M162,2650 L159.99406,2650 C158.894514,2650 158,2650.89925 158,2652.00853 L158,2659.99147 C158,2661.09805 158.892771,2662 159.99406,2662 L172.00594,2662 C173.105486,2662 174,2661.10075 174,2659.99147 L174,2652.00853 C174,2650.90195 173.107229,2650 172.00594,2650 L170,2650 L170,2648.99981 C170,2648.44372 169.553614,2648 169.00297,2648 L162.99703,2648 C162.453036,2648 162,2648.44763 162,2648.99981 L162,2650 Z M165.999727,2652 C164.906905,2652 163.967079,2652.39344 163.180247,2653.18033 C162.393962,2653.96667 162,2654.9071 162,2656 C162,2657.0929 162.393962,2658.03224 163.180247,2658.81967 C163.967079,2659.60656 164.906905,2660 165.999727,2660 C167.092548,2660 168.032921,2659.60656 168.819206,2658.81967 C169.606038,2658.03224 170,2657.0929 170,2656 C170,2654.9071 169.606038,2653.96667 168.819206,2653.18033 C168.032921,2652.39344 167.092548,2652 165.999727,2652 Z M165.999863,2654 C165.453453,2654 164.983539,2654.19672 164.590124,2654.59016 C164.196981,2654.98333 164,2655.45355 164,2656 C164,2656.54645 164.196981,2657.01612 164.590124,2657.40984 C164.983539,2657.80328 165.453453,2658 165.999863,2658 C166.546274,2658 167.016461,2657.80328 167.409603,2657.40984 C167.803019,2657.01612 168,2656.54645 168,2656 C168,2655.45355 167.803019,2654.98333 167.409603,2654.59016 C167.016461,2654.19672 166.546274,2654 165.999863,2654 L165.999863,2654 L165.999863,2654 L165.999863,2654 Z"></path>
        </g>
    </g>
</svg>